<?xml version="1.0" standalone="no"?>
<!DOCTYPE svg PUBLIC "-//W3C//DTD SVG 20010904//EN"
 "http://www.w3.org/TR/2001/REC-SVG-20010904/DTD/svg10.dtd">
<svg version="1.0" xmlns="http://www.w3.org/2000/svg"
 width="432.000000pt" height="432.000000pt" viewBox="0 0 432.000000 432.000000"
 preserveAspectRatio="xMidYMid meet">
<metadata>
Created by potrace 1.14, written by Peter Selinger 2001-2017
</metadata>
<g transform="translate(0.000000,432.000000) scale(0.100000,-0.100000)"
fill="#000000" stroke="none">
<path d="M2369 3622 c-102 -60 -156 -99 -228 -167 -64 -60 -68 -62 -131 -68
-36 -3 -87 -14 -113 -23 -47 -16 -49 -16 -108 10 -73 31 -187 61 -292 75 -128
18 -120 22 -112 -56 13 -119 53 -226 139 -369 33 -54 36 -65 36 -136 l0 -77
-32 -5 c-182 -30 -275 -49 -283 -58 -7 -8 0 -9 25 -4 71 13 196 34 246 41 43
5 52 4 58 -11 4 -10 3 -21 -1 -24 -4 -4 -59 -24 -120 -45 -62 -20 -113 -40
-113 -45 0 -4 55 10 122 31 68 21 126 35 129 31 4 -4 9 -16 13 -27 5 -17 -13
-31 -119 -93 -69 -40 -125 -77 -125 -83 0 -7 8 -6 23 3 12 8 71 43 131 78 101
59 109 62 118 44 22 -41 136 -140 192 -167 49 -24 57 -32 53 -50 -62 -255 -82
-432 -74 -677 l6 -185 -30 -51 c-120 -210 -144 -503 -60 -724 l20 -52 -32 6
c-204 43 -414 33 -595 -28 -98 -34 -229 -103 -269 -143 -49 -49 -45 -111 8
-138 43 -23 72 -19 177 24 146 59 234 75 392 74 157 0 261 -16 520 -78 268
-64 367 -84 495 -95 351 -33 645 94 770 332 57 108 76 178 82 308 9 189 -35
362 -142 567 -71 134 -147 247 -457 675 l-259 358 25 33 c14 18 35 54 46 80
12 26 23 47 25 47 2 0 64 -20 139 -44 75 -24 136 -40 136 -36 0 10 -72 37
-187 71 -68 20 -83 28 -83 44 0 40 9 42 138 30 67 -6 122 -8 122 -4 0 9 -48
17 -157 25 -88 6 -93 8 -93 29 0 27 19 31 203 41 72 4 127 11 127 17 0 9 -60
7 -256 -9 l-71 -6 -6 55 c-3 30 -17 83 -31 118 -21 54 -23 71 -16 109 17 88
22 234 11 300 -16 89 -40 160 -54 160 -7 0 -42 -17 -78 -38z"/>
</g>
</svg>
